<svg xmlns="http://www.w3.org/2000/svg" viewBox="0 0 1600 900" fill="none">
  <rect width="1600" height="900" fill="white"/>
  <path d="M130 690V240M130 690h620" stroke="#0F5EA8" stroke-opacity=".18" stroke-width="5" stroke-linecap="round"/>
  <rect x="200" y="500" width="70" height="190" rx="8" fill="#39BDEB" fill-opacity=".22"/><rect x="320" y="405" width="70" height="285" rx="8" fill="#2EC4B6" fill-opacity=".20"/><rect x="440" y="330" width="70" height="360" rx="8" fill="#0F5EA8" fill-opacity=".16"/><rect x="560" y="260" width="70" height="430" rx="8" fill="#F1C05B" fill-opacity=".20"/>
  <path d="M860 220h520v360H860z" stroke="#0F5EA8" stroke-opacity=".14" stroke-width="5"/>
  <path d="M930 320h380M930 410h280M930 500h340" stroke="#39BDEB" stroke-opacity=".28" stroke-width="8" stroke-linecap="round"/>
  <circle cx="1130" cy="685" r="110" stroke="#2EC4B6" stroke-opacity=".22" stroke-width="18"/>
  <path d="M1130 575a110 110 0 0 1 95 165" stroke="#0F5EA8" stroke-opacity=".34" stroke-width="18" stroke-linecap="round"/>
  <path d="M1040 685h180M1130 595v180" stroke="#0F5EA8" stroke-opacity=".10" stroke-width="3"/>
</svg>
