<svg xmlns="http://www.w3.org/2000/svg" viewBox="0 0 1600 900" fill="none">
  <rect width="1600" height="900" fill="white"/>
  <path d="M104 700h500V420L354 250 104 420v280Z" stroke="#0F5EA8" stroke-opacity=".16" stroke-width="5"/>
  <path d="M190 700V470h328v230M248 520h70M390 520h70M248 600h70M390 600h70" stroke="#39BDEB" stroke-opacity=".24" stroke-width="5" stroke-linecap="round"/>
  <path d="M760 200h520M760 310h420M760 420h520M760 530h360" stroke="#0F5EA8" stroke-opacity=".10"/>
  <path d="M815 630c80-70 155-70 230 0 76 70 150 70 226 0" stroke="#2EC4B6" stroke-opacity=".32" stroke-width="6" stroke-linecap="round"/>
  <path d="M1040 150l150 58-150 58-150-58 150-58Z" stroke="#0F5EA8" stroke-opacity=".28" stroke-width="4"/>
  <path d="M950 245v88c58 42 122 42 180 0v-88" stroke="#39BDEB" stroke-opacity=".3" stroke-width="4"/>
  <rect x="1180" y="510" width="210" height="260" rx="16" stroke="#0F5EA8" stroke-opacity=".2" stroke-width="4"/>
  <path d="M1225 570h120M1225 625h120M1225 680h84" stroke="#2EC4B6" stroke-opacity=".28" stroke-width="7" stroke-linecap="round"/>
  <g fill="#39BDEB" fill-opacity=".24"><circle cx="740" cy="200" r="7"/><circle cx="740" cy="310" r="7"/><circle cx="740" cy="420" r="7"/><circle cx="740" cy="530" r="7"/></g>
</svg>
